<?xml version="1.0" standalone="no"?>
<!DOCTYPE svg PUBLIC "-//W3C//DTD SVG 20010904//EN"
 "http://www.w3.org/TR/2001/REC-SVG-20010904/DTD/svg10.dtd">
<svg version="1.0" xmlns="http://www.w3.org/2000/svg"
 width="512.000000pt" height="512.000000pt" viewBox="0 0 512.000000 512.000000"
 preserveAspectRatio="xMidYMid meet">
<metadata>
Created by potrace 1.11, written by Peter Selinger 2001-2013
</metadata>
<g transform="translate(0.000000,512.000000) scale(0.100000,-0.100000)"
fill="#000000" stroke="none">
<path d="M2530 5077 c0 -29 -145 -205 -1245 -1510 -685 -813 -1245 -1481
-1245 -1486 0 -4 555 -460 1232 -1012 678 -552 1246 -1016 1262 -1032 25 -24
30 -26 45 -14 9 8 565 461 1236 1007 671 546 1232 1004 1246 1019 l26 26
-1248 1490 c-876 1045 -1249 1497 -1249 1514 0 16 -4 21 -15 18 -8 -4 -17 -2
-20 3 -13 20 -25 9 -25 -23z m132 -1078 c129 -28 250 -123 310 -246 31 -64 33
-74 33 -178 0 -100 -3 -116 -29 -172 -15 -34 -27 -66 -25 -72 5 -12 688 -819
700 -827 5 -3 22 4 37 15 15 10 57 29 92 41 220 75 463 -76 510 -316 41 -211
-138 -440 -361 -460 -104 -10 -218 27 -291 94 -16 15 -33 22 -43 19 -13 -6
-655 -457 -679 -478 -5 -5 3 -35 20 -71 26 -56 29 -74 29 -163 0 -91 -3 -105
-30 -160 -38 -77 -124 -162 -200 -199 -83 -41 -204 -48 -286 -17 -122 46 -216
140 -255 254 -37 106 -18 243 48 341 17 26 29 48 27 50 -12 10 -794 426 -801
426 -4 0 -27 -13 -49 -30 -170 -122 -406 -87 -539 81 -80 102 -107 249 -67
366 40 114 154 225 266 260 70 22 171 19 246 -8 l63 -22 264 244 c276 256 533
493 557 515 12 11 9 24 -22 86 -20 41 -41 102 -46 138 -46 291 230 550 521
489z"/>
<path d="M2713 3109 l-83 -60 0 -755 c0 -415 3 -754 8 -754 4 0 198 123 432
273 l425 273 2 82 c1 45 6 97 13 117 6 19 8 40 4 47 -18 28 -706 838 -712 838
-4 0 -44 -28 -89 -61z"/>
<path d="M1948 2764 c-403 -371 -417 -386 -404 -407 30 -46 48 -137 45 -220
l-4 -80 428 -259 c235 -142 430 -258 432 -258 3 0 5 340 5 757 l0 756 -31 49
c-17 26 -36 48 -43 47 -6 0 -199 -173 -428 -385z"/>
</g>
</svg>
